<svg width="63" height="40" viewBox="0 0 63 40" fill="none" xmlns="http://www.w3.org/2000/svg">
<path d="M13.3164 30.3125C13.1211 30.3125 12.9258 30.306 12.7305 30.293C12.5352 30.2799 12.3464 30.2604 12.1641 30.2344C12.8932 30.4297 13.694 30.7031 14.5664 31.0547C15.4518 31.4193 16.3633 31.8164 17.3008 32.2461C18.2383 32.6758 19.1823 33.112 20.1328 33.5547C21.0964 33.9974 22.0143 34.401 22.8867 34.7656C23.7721 35.1302 24.5924 35.4232 25.3477 35.6445C26.1029 35.8789 26.7604 35.9961 27.3203 35.9961C27.8151 35.9961 28.2318 35.9375 28.5703 35.8203C28.9219 35.7161 29.2018 35.5794 29.4102 35.4102C29.6315 35.2539 29.7943 35.0716 29.8984 34.8633C30.0156 34.668 30.0872 34.4727 30.1133 34.2773L30.7188 34.3945C30.6536 35.1367 30.5039 35.8464 30.2695 36.5234C30.0482 37.2005 29.7292 37.793 29.3125 38.3008C28.8958 38.8216 28.3815 39.2318 27.7695 39.5312C27.1576 39.8438 26.4349 40 25.6016 40C24.8984 40 24.0716 39.8307 23.1211 39.4922C22.1706 39.1536 21.1549 38.7305 20.0742 38.2227C19.0065 37.7279 17.9062 37.1875 16.7734 36.6016C15.6536 36.0156 14.5599 35.4688 13.4922 34.9609C12.4375 34.4661 11.4479 34.0495 10.5234 33.7109C9.59896 33.3724 8.79818 33.2031 8.12109 33.2031C7.32682 33.2031 6.77995 33.5352 6.48047 34.1992L5.875 34.0039C5.88802 33.8477 5.93359 33.6393 6.01172 33.3789C6.08984 33.1315 6.20052 32.8581 6.34375 32.5586C6.5 32.2721 6.69531 31.9792 6.92969 31.6797C7.16406 31.3802 7.4375 31.1068 7.75 30.8594C8.07552 30.625 8.44661 30.4232 8.86328 30.2539C9.29297 30.0977 9.78125 30.013 10.3281 30C8.96094 29.7005 7.6849 29.1862 6.5 28.457C5.3151 27.7279 4.28646 26.7708 3.41406 25.5859C2.54167 24.388 1.85156 22.9622 1.34375 21.3086C0.848958 19.6419 0.601562 17.7279 0.601562 15.5664C0.601562 13.0273 0.940104 10.8333 1.61719 8.98438C2.30729 7.1224 3.23177 5.58594 4.39062 4.375C5.54948 3.16406 6.89714 2.26562 8.43359 1.67969C9.98307 1.09375 11.6107 0.800781 13.3164 0.800781C15.0221 0.800781 16.6432 1.09375 18.1797 1.67969C19.7161 2.26562 21.0638 3.16406 22.2227 4.375C23.3945 5.58594 24.319 7.1224 24.9961 8.98438C25.6862 10.8333 26.0312 13.0273 26.0312 15.5664C26.0312 18.1055 25.6862 20.306 24.9961 22.168C24.319 24.0169 23.3945 25.5469 22.2227 26.7578C21.0638 27.9557 19.7161 28.8477 18.1797 29.4336C16.6432 30.0195 15.0221 30.3125 13.3164 30.3125ZM13.3164 2.36328C13.0039 2.36328 12.6393 2.41536 12.2227 2.51953C11.819 2.61068 11.3958 2.81901 10.9531 3.14453C10.5234 3.45703 10.0938 3.90625 9.66406 4.49219C9.23438 5.07812 8.85026 5.85938 8.51172 6.83594C8.1862 7.8125 7.91927 9.01693 7.71094 10.4492C7.5026 11.8685 7.39844 13.5742 7.39844 15.5664C7.39844 17.5456 7.5026 19.2448 7.71094 20.6641C7.91927 22.0703 8.1862 23.2552 8.51172 24.2188C8.85026 25.1693 9.23438 25.931 9.66406 26.5039C10.0938 27.0638 10.5234 27.4935 10.9531 27.793C11.3958 28.0794 11.819 28.2682 12.2227 28.3594C12.6393 28.4375 13.0039 28.4766 13.3164 28.4766C13.6159 28.4766 13.974 28.4375 14.3906 28.3594C14.8073 28.2682 15.2305 28.0794 15.6602 27.793C16.1029 27.4935 16.5391 27.0638 16.9688 26.5039C17.3984 25.931 17.776 25.1693 18.1016 24.2188C18.4401 23.2552 18.7135 22.0703 18.9219 20.6641C19.1302 19.2578 19.2344 17.5586 19.2344 15.5664C19.2344 13.5742 19.1302 11.8685 18.9219 10.4492C18.7135 9.01693 18.4401 7.8125 18.1016 6.83594C17.776 5.85938 17.3984 5.07812 16.9688 4.49219C16.5391 3.90625 16.1029 3.45703 15.6602 3.14453C15.2305 2.81901 14.8073 2.61068 14.3906 2.51953C13.974 2.41536 13.6159 2.36328 13.3164 2.36328Z" fill="black"/>
<path d="M38.4727 19.8828C38.4727 19.5573 38.3685 19.3099 38.1602 19.1406C37.9518 18.9714 37.6849 18.8867 37.3594 18.8867C36.9036 18.8867 36.4674 18.9909 36.0508 19.1992C35.6471 19.4076 35.2891 19.7135 34.9766 20.1172C34.6641 20.5208 34.4167 21.0221 34.2344 21.6211C34.0521 22.207 33.9609 22.8906 33.9609 23.6719C33.9609 24.4271 34.013 25.0521 34.1172 25.5469C34.2344 26.0417 34.3841 26.4388 34.5664 26.7383C34.7617 27.0247 34.9831 27.2266 35.2305 27.3438C35.4779 27.4609 35.7383 27.5195 36.0117 27.5195C36.3503 27.5195 36.6693 27.4349 36.9688 27.2656C37.2682 27.0833 37.5286 26.8555 37.75 26.582C37.9714 26.3086 38.1471 26.0026 38.2773 25.6641C38.4076 25.3255 38.4727 24.987 38.4727 24.6484V19.8828ZM35.3672 11.3281C34.9245 11.3281 34.5143 11.3802 34.1367 11.4844C33.7591 11.5885 33.4336 11.7188 33.1602 11.875C32.8867 12.0312 32.6719 12.207 32.5156 12.4023C32.3594 12.5846 32.2812 12.7604 32.2812 12.9297C32.2812 13.125 32.3789 13.2682 32.5742 13.3594C32.7826 13.4375 33.0104 13.5352 33.2578 13.6523C33.5052 13.7565 33.7266 13.9128 33.9219 14.1211C34.1302 14.3164 34.2344 14.6224 34.2344 15.0391C34.2344 15.3125 34.1758 15.5664 34.0586 15.8008C33.9544 16.0221 33.8047 16.224 33.6094 16.4062C33.4271 16.5755 33.2057 16.7122 32.9453 16.8164C32.6979 16.9076 32.4375 16.9531 32.1641 16.9531C31.4349 16.9531 30.8424 16.7057 30.3867 16.2109C29.944 15.7161 29.7227 15.0586 29.7227 14.2383C29.7227 13.444 29.931 12.7669 30.3477 12.207C30.7643 11.6341 31.3047 11.1654 31.9688 10.8008C32.6458 10.4362 33.4076 10.1693 34.2539 10C35.1003 9.81771 35.9466 9.72656 36.793 9.72656C37.8086 9.72656 38.7786 9.83724 39.7031 10.0586C40.6276 10.2799 41.4414 10.6315 42.1445 11.1133C42.8607 11.5951 43.4271 12.207 43.8438 12.9492C44.2734 13.6914 44.4883 14.5898 44.4883 15.6445V26.6797C44.4883 26.7969 44.4948 26.9271 44.5078 27.0703C44.5208 27.2135 44.5534 27.3438 44.6055 27.4609C44.6576 27.5781 44.7357 27.6758 44.8398 27.7539C44.944 27.832 45.0938 27.8711 45.2891 27.8711C45.5234 27.8711 45.7383 27.7865 45.9336 27.6172C46.1419 27.4349 46.3242 27.2526 46.4805 27.0703L46.9688 27.4805C46.7734 27.7539 46.5391 28.0534 46.2656 28.3789C45.9922 28.7044 45.6602 29.0104 45.2695 29.2969C44.8789 29.5833 44.4232 29.8242 43.9023 30.0195C43.3815 30.2148 42.7891 30.3125 42.125 30.3125C41.3047 30.3125 40.5755 30.0716 39.9375 29.5898C39.2995 29.0951 38.8828 28.3398 38.6875 27.3242C38.2708 27.8841 37.8346 28.3529 37.3789 28.7305C36.9362 29.1081 36.4805 29.4141 36.0117 29.6484C35.543 29.8828 35.0677 30.0521 34.5859 30.1562C34.1172 30.2604 33.6419 30.3125 33.1602 30.3125C32.5352 30.3125 31.9297 30.2148 31.3438 30.0195C30.7578 29.8242 30.2305 29.5182 29.7617 29.1016C29.306 28.6719 28.9349 28.1185 28.6484 27.4414C28.375 26.7643 28.2383 25.9375 28.2383 24.9609C28.2383 23.776 28.4727 22.806 28.9414 22.0508C29.4102 21.2956 30.0221 20.6641 30.7773 20.1562C31.5456 19.6354 32.4115 19.1927 33.375 18.8281C34.3516 18.4635 35.3477 18.0794 36.3633 17.6758C37.1185 17.3763 37.6654 16.9336 38.0039 16.3477C38.3555 15.7487 38.5312 15.1367 38.5312 14.5117C38.5312 13.5482 38.2448 12.7799 37.6719 12.207C37.112 11.6211 36.3438 11.3281 35.3672 11.3281Z" fill="black"/>
<path d="M55.9336 11.4062V25.8398C55.9336 26.5299 56.0638 27.0117 56.3242 27.2852C56.5846 27.5456 56.9427 27.6758 57.3984 27.6758C57.75 27.6758 58.0625 27.5781 58.3359 27.3828C58.6094 27.1875 58.8438 26.9661 59.0391 26.7188C59.2734 26.4453 59.4753 26.1263 59.6445 25.7617L60.25 26.0352C60.0547 26.4518 59.8203 26.9076 59.5469 27.4023C59.2865 27.8971 58.9349 28.3594 58.4922 28.7891C58.0495 29.2057 57.4896 29.5573 56.8125 29.8438C56.1484 30.1302 55.3086 30.2734 54.293 30.2734C53.7201 30.2734 53.1667 30.1888 52.6328 30.0195C52.112 29.8503 51.6432 29.5833 51.2266 29.2188C50.8229 28.8542 50.4974 28.3984 50.25 27.8516C50.0026 27.3047 49.8789 26.6471 49.8789 25.8789V11.4062H47.6914V10C48.056 10 48.5638 9.90885 49.2148 9.72656C49.8659 9.53125 50.5299 9.21224 51.207 8.76953C51.8971 8.32682 52.5352 7.73438 53.1211 6.99219C53.707 6.25 54.1237 5.33203 54.3711 4.23828H55.9336V10H59.1172C60.1589 10 60.6797 9.82422 60.6797 9.47266C60.6797 9.34245 60.6146 9.25781 60.4844 9.21875C60.3542 9.16667 60.2044 9.10807 60.0352 9.04297C59.8789 8.96484 59.7357 8.86068 59.6055 8.73047C59.4753 8.60026 59.4102 8.38542 59.4102 8.08594C59.4102 7.72135 59.5208 7.4349 59.7422 7.22656C59.9766 7.01823 60.276 6.91406 60.6406 6.91406C60.875 6.91406 61.0768 6.96615 61.2461 7.07031C61.4284 7.16146 61.5781 7.29167 61.6953 7.46094C61.8125 7.61719 61.8971 7.79948 61.9492 8.00781C62.0143 8.21615 62.0469 8.42448 62.0469 8.63281C62.0469 9.47917 61.7995 10.1562 61.3047 10.6641C60.8229 11.1589 60.0417 11.4062 58.9609 11.4062H55.9336Z" fill="black"/>
</svg>
